<svg width="40" height="41" viewBox="0 0 40 41" fill="none" xmlns="http://www.w3.org/2000/svg">
<path d="M3.28155 37.3831L3.28143 37.383C1.92598 36.0285 1.2201 34.2412 0.861545 31.5733C0.501061 28.8911 0.5 25.3948 0.5 20.6667C0.5 15.9385 0.501061 12.4427 0.861545 9.76052C1.22008 7.09278 1.92593 5.30485 3.28155 3.94823C4.63921 2.59255 6.42723 1.88674 9.09461 1.52822C11.7766 1.16773 15.2719 1.16667 20 1.16667C24.7281 1.16667 28.2239 1.16773 30.9059 1.52822C33.5734 1.88676 35.3607 2.59259 36.7163 3.9481C38.0731 5.30581 38.7794 7.09386 39.1382 9.76132C39.4989 12.4432 39.5 15.9385 39.5 20.6667C39.5 25.3948 39.4989 28.8906 39.1382 31.5725C38.7794 34.24 38.0731 36.0274 36.7166 37.383L36.7162 37.3834C35.3617 38.7398 33.5744 39.4461 30.9066 39.8049C28.2244 40.1656 24.7281 40.1667 20 40.1667C15.2719 40.1667 11.7761 40.1656 9.09389 39.8049C6.42613 39.4461 4.6382 38.7398 3.28155 37.3831Z" fill="white" stroke="#D4D4D8"/>
<path d="M21.4142 11.2525C21.0391 10.8774 20.5304 10.6667 20 10.6667C19.4696 10.6667 18.9609 10.8774 18.5858 11.2525C18.2107 11.6275 18 12.1362 18 12.6667V18.6667V22.6667V28.6667C18 29.1971 18.2107 29.7058 18.5858 30.0809C18.9609 30.456 19.4696 30.6667 20 30.6667C20.5304 30.6667 21.0391 30.456 21.4142 30.0809C21.7893 29.7058 22 29.1971 22 28.6667V22.6667V18.6667V12.6667C22 12.1362 21.7893 11.6275 21.4142 11.2525Z" fill="#A1A1AA"/>
<path d="M10.5858 19.2525C10.2107 19.6275 10 20.1362 10 20.6667C10 21.1971 10.2107 21.7058 10.5858 22.0809C10.9609 22.456 11.4696 22.6667 12 22.6667H18H22H28C28.5304 22.6667 29.0391 22.456 29.4142 22.0809C29.7893 21.7058 30 21.1971 30 20.6667C30 20.1362 29.7893 19.6275 29.4142 19.2525C29.0391 18.8774 28.5304 18.6667 28 18.6667H22H18H12C11.4696 18.6667 10.9609 18.8774 10.5858 19.2525Z" fill="#A1A1AA"/>
</svg>
