<svg width="40" height="40" viewBox="0 0 40 40" fill="none" xmlns="http://www.w3.org/2000/svg">
<path d="M20 40C10.572 40 5.858 40 2.928 37.07C0 34.144 0 29.428 0 20C0 10.572 0 5.858 2.928 2.928C5.86 0 10.572 0 20 0C29.428 0 34.142 0 37.07 2.928C40 5.86 40 10.572 40 20C40 29.428 40 34.142 37.07 37.07C34.144 40 29.428 40 20 40Z" fill="#F4F4F5"/>
<path d="M24 10H16C14.4087 10 12.8826 10.6321 11.7574 11.7574C10.6321 12.8826 10 14.4087 10 16V24C10 25.5913 10.6321 27.1174 11.7574 28.2426C12.8826 29.3679 14.4087 30 16 30H24C25.5913 30 27.1174 29.3679 28.2426 28.2426C29.3679 27.1174 30 25.5913 30 24V16C30 14.4087 29.3679 12.8826 28.2426 11.7574C27.1174 10.6321 25.5913 10 24 10Z" stroke="#A1A1AA" stroke-miterlimit="1.5" stroke-linecap="round" stroke-linejoin="round"/>
<path d="M24 13H16C15.2044 13 14.4413 13.3161 13.8787 13.8787C13.3161 14.4413 13 15.2044 13 16V24C13 24.7956 13.3161 25.5587 13.8787 26.1213C14.4413 26.6839 15.2044 27 16 27H24C24.7956 27 25.5587 26.6839 26.1213 26.1213C26.6839 25.5587 27 24.7956 27 24V16C27 15.2044 26.6839 14.4413 26.1213 13.8787C25.5587 13.3161 24.7956 13 24 13Z" fill="#A1A1AA" stroke="#A1A1AA" stroke-miterlimit="1.5" stroke-linecap="round" stroke-linejoin="round"/>
</svg>
